<?xml version="1.0" standalone="no"?>
<!DOCTYPE svg PUBLIC "-//W3C//DTD SVG 20010904//EN"
 "http://www.w3.org/TR/2001/REC-SVG-20010904/DTD/svg10.dtd">
<svg version="1.0" xmlns="http://www.w3.org/2000/svg"
 width="184.000000pt" height="200.000000pt" viewBox="0 0 184.000000 200.000000"
 preserveAspectRatio="xMidYMid meet">

<g transform="translate(0.000000,200.000000) scale(0.100000,-0.100000)"
fill="#000000" stroke="none">
<path d="M610 1991 c0 -5 -3 -16 -6 -25 -5 -14 6 -16 80 -16 47 0 86 -3 86 -7
0 -5 -130 -390 -288 -858 l-288 -850 -91 -3 c-81 -2 -91 -5 -96 -22 -5 -20 2
-20 380 -20 347 0 385 2 379 16 -3 9 -6 18 -6 20 0 2 -54 4 -120 4 -88 0 -120
3 -120 12 0 18 114 358 120 358 3 0 65 -135 139 -300 l134 -300 91 0 92 0 30
93 30 92 221 3 221 2 22 63 c12 34 57 166 100 292 43 127 81 238 85 248 6 13
2 17 -18 17 -22 0 -28 -8 -43 -52 -24 -75 -106 -248 -143 -301 -77 -112 -181
-184 -300 -207 -66 -12 -121 -13 -121 -1 0 14 421 1294 439 1336 30 66 52 79
142 84 76 3 79 4 79 27 l0 24 -260 0 -260 0 0 -24 c0 -23 4 -24 74 -28 57 -2
82 -9 103 -24 25 -20 28 -27 27 -80 -1 -38 -16 -107 -42 -194 -53 -173 -348
-1069 -354 -1075 -4 -4 -321 726 -330 760 -1 6 64 209 146 452 l148 442 100 3
c94 3 101 4 109 26 l8 22 -349 0 c-206 0 -350 -4 -350 -9z"/>
<path d="M22 1698 c3 -21 9 -23 74 -26 l72 -3 128 -289 c71 -158 132 -285 135
-282 4 4 39 107 80 228 l73 221 -27 62 -26 61 48 0 c47 0 61 9 61 41 0 5 -129
9 -311 9 l-310 0 3 -22z"/>
</g>
</svg>
